<?xml version="1.0" encoding="UTF-8" standalone="no"?>
<!-- Created with Inkscape (http://www.inkscape.org/) -->

<svg
   xmlns:dc="http://purl.org/dc/elements/1.1/"
   xmlns:cc="http://creativecommons.org/ns#"
   xmlns:rdf="http://www.w3.org/1999/02/22-rdf-syntax-ns#"
   xmlns:svg="http://www.w3.org/2000/svg"
   xmlns="http://www.w3.org/2000/svg"
   xmlns:sodipodi="http://sodipodi.sourceforge.net/DTD/sodipodi-0.dtd"
   xmlns:inkscape="http://www.inkscape.org/namespaces/inkscape"
   width="106mm"
   height="106mm"
   viewBox="0 0 106 106"
   version="1.1"
   id="svg8"
   inkscape:version="0.92.4 (5da689c313, 2019-01-14)"
   sodipodi:docname="anarchonami_stickers.svg">
  <defs
     id="defs2" />
  <sodipodi:namedview
     id="base"
     pagecolor="#ffffff"
     bordercolor="#666666"
     borderopacity="1.0"
     inkscape:pageopacity="0.0"
     inkscape:pageshadow="2"
     inkscape:zoom="0.7"
     inkscape:cx="209.92315"
     inkscape:cy="236.15376"
     inkscape:document-units="mm"
     inkscape:current-layer="layer1"
     showgrid="true"
     inkscape:window-width="1920"
     inkscape:window-height="1043"
     inkscape:window-x="1366"
     inkscape:window-y="18"
     inkscape:window-maximized="0"
     inkscape:snap-page="false">
    <inkscape:grid
       type="xygrid"
       id="grid4518"
       units="mm"
       spacingx="0.99999999"
       spacingy="0.99999999"
       empspacing="5"
       visible="true" />
  </sodipodi:namedview>
  <metadata
     id="metadata5">
    <rdf:RDF>
      <cc:Work
         rdf:about="">
        <dc:format>image/svg+xml</dc:format>
        <dc:type
           rdf:resource="http://purl.org/dc/dcmitype/StillImage" />
        <dc:title></dc:title>
      </cc:Work>
    </rdf:RDF>
  </metadata>
  <g
     inkscape:label="Layer 1"
     inkscape:groupmode="layer"
     id="layer1"
     transform="translate(0,-191)">
    <g
       id="g5007"
       transform="translate(5.0000019,-5.0000019)">
      <g
         id="g4979">
        <circle
           style="opacity:1;fill:#000000;fill-opacity:1;stroke:none;stroke-width:0.26458332"
           id="path4851"
           cx="25"
           cy="226"
           r="30.000002" />
        <circle
           style="opacity:1;fill:#000000;fill-opacity:1;stroke:none;stroke-width:0.26458332"
           id="path4853"
           cx="25"
           cy="272"
           r="30.000002" />
        <ellipse
           style="opacity:1;fill:#000000;fill-opacity:1;stroke:none;stroke-width:0.26458332"
           id="path4855"
           cx="71"
           cy="226"
           rx="30"
           ry="30.000002" />
        <circle
           style="opacity:1;fill:#000000;fill-opacity:1;stroke:none;stroke-width:0.26458332"
           id="path4857"
           cx="71"
           cy="272"
           r="30.000002" />
      </g>
      <g
         id="g4973">
        <g
           id="g4891">
          <path
             id="path4537"
             d="M 25.000024,200.99995 A 25,25 0 0 0 0,225.99997 25,25 0 0 0 25.000024,251 25,25 0 0 0 50.000048,225.99997 25,25 0 0 0 25.000024,200.99995 Z m 0,3.99975 A 21,21 0 0 1 45.999775,225.99997 21,21 0 0 1 25.000024,246.99972 21,21 0 0 1 3.9997559,225.99997 21,21 0 0 1 25.000024,204.9997 Z"
             style="opacity:1;fill:#f00000;fill-opacity:1;stroke:none;stroke-width:0.26458332"
             inkscape:connector-curvature="0" />
          <g
             id="g4883">
            <path
               style="fill:#f00000;fill-opacity:1;stroke:none;stroke-width:0.26458332px;stroke-linecap:butt;stroke-linejoin:miter;stroke-opacity:1"
               d="m 16,218.9999 -4,-9 -4.0000001,9 h 2 v 21 H 14 v -21 z"
               id="path4520-3"
               inkscape:connector-curvature="0"
               sodipodi:nodetypes="cccccccc" />
            <path
               sodipodi:nodetypes="cccccccc"
               inkscape:connector-curvature="0"
               id="path4548"
               d="m 25,218.9999 -4,-9 -4,9 h 2 v 21 h 4 v -21 z"
               style="fill:#f00000;fill-opacity:1;stroke:none;stroke-width:0.26458332px;stroke-linecap:butt;stroke-linejoin:miter;stroke-opacity:1" />
            <path
               sodipodi:nodetypes="cccccccc"
               inkscape:connector-curvature="0"
               id="path4550"
               d="m 25,232.9999 4,9 4,-9 h -2 v -21 h -4 v 21 z"
               style="fill:#f00000;fill-opacity:1;stroke:none;stroke-width:0.26458332px;stroke-linecap:butt;stroke-linejoin:miter;stroke-opacity:1" />
            <path
               style="fill:#f00000;fill-opacity:1;stroke:none;stroke-width:0.26458332px;stroke-linecap:butt;stroke-linejoin:miter;stroke-opacity:1"
               d="m 34,232.9999 4,9 4,-9 h -2 v -21 h -4 v 21 z"
               id="path4552"
               inkscape:connector-curvature="0"
               sodipodi:nodetypes="cccccccc" />
          </g>
        </g>
        <g
           id="g4905">
          <path
             inkscape:connector-curvature="0"
             style="opacity:1;fill:#f00000;fill-opacity:1;stroke:none;stroke-width:0.26458332"
             d="M 71.000023,200.99995 A 25,25 0 0 0 45.999999,225.99997 25,25 0 0 0 71.000023,251 25,25 0 0 0 96.000049,225.99997 25,25 0 0 0 71.000023,200.99995 Z m 0,3.99975 A 21,21 0 0 1 91.999774,225.99997 21,21 0 0 1 71.000023,246.99972 21,21 0 0 1 49.999755,225.99997 21,21 0 0 1 71.000023,204.9997 Z"
             id="path4565" />
          <g
             id="g4897">
            <path
               sodipodi:nodetypes="cccccccc"
               inkscape:connector-curvature="0"
               id="path4563"
               d="m 63.999999,216.9999 -9,-4 9,-4 v 2 h 21 v 4 h -21 z"
               style="fill:#f00000;fill-opacity:1;stroke:none;stroke-width:0.26458332px;stroke-linecap:butt;stroke-linejoin:miter;stroke-opacity:1" />
            <path
               style="fill:#f00000;fill-opacity:1;stroke:none;stroke-width:0.26458332px;stroke-linecap:butt;stroke-linejoin:miter;stroke-opacity:1"
               d="m 77.999999,225.66656 9,-4 -9,-4 v 2 h -21 v 4 h 21 z"
               id="path4567"
               inkscape:connector-curvature="0"
               sodipodi:nodetypes="cccccccc" />
            <path
               style="fill:#f00000;fill-opacity:1;stroke:none;stroke-width:0.26458332px;stroke-linecap:butt;stroke-linejoin:miter;stroke-opacity:1"
               d="m 63.999999,226.33323 -9,4 9,4 v -2 h 21 v -4 h -21 z"
               id="path4569"
               inkscape:connector-curvature="0"
               sodipodi:nodetypes="cccccccc" />
            <path
               sodipodi:nodetypes="cccccccc"
               inkscape:connector-curvature="0"
               id="path4571"
               d="m 77.999999,234.9999 9,4 -9,4 v -2 h -21 v -4 h 21 z"
               style="fill:#f00000;fill-opacity:1;stroke:none;stroke-width:0.26458332px;stroke-linecap:butt;stroke-linejoin:miter;stroke-opacity:1" />
          </g>
        </g>
        <g
           id="g4830"
           transform="translate(46)"
           style="fill:#f00000;fill-opacity:1">
          <path
             inkscape:connector-curvature="0"
             style="opacity:1;fill:#f00000;fill-opacity:1;stroke:none;stroke-width:0.26458332"
             d="M 25.000024,246.99995 A 25,25 0 0 0 0,271.99997 25,25 0 0 0 25.000024,297 25,25 0 0 0 50.000048,271.99997 25,25 0 0 0 25.000024,246.99995 Z m 0,3.99975 A 21,21 0 0 1 45.999775,271.99997 21,21 0 0 1 25.000024,292.99972 21,21 0 0 1 3.9997559,271.99997 21,21 0 0 1 25.000024,250.9997 Z"
             id="path4604" />
          <path
             id="rect4621"
             transform="matrix(0.26458333,0,0,0.26458333,0,197)"
             d="M 87.841797,198.92383 34.292969,346.04492 a 86.929126,86.929126 0 0 0 12.453125,9.98828 L 66.28125,302.36133 h 56.41406 l 19.54297,53.69336 a 86.929126,86.929126 0 0 0 12.47266,-9.93164 l -53.57617,-147.19922 -6.646489,2.41992 z m 6.646484,25.9375 22.705079,62.38281 H 71.783203 Z"
             style="opacity:1;fill:#f00000;fill-opacity:1;stroke:none;stroke-width:1.13227701"
             inkscape:connector-curvature="0" />
        </g>
        <g
           id="g4825"
           transform="translate(-50)"
           style="fill:#f00000;fill-opacity:1">
          <path
             id="path4614"
             d="M 75.000024,246.99995 A 25,25 0 0 0 50,271.99997 25,25 0 0 0 75.000024,297 25,25 0 0 0 100.00005,271.99997 25,25 0 0 0 75.000024,246.99995 Z m 0,3.99975 A 21,21 0 0 1 95.999775,271.99997 21,21 0 0 1 75.000024,292.99972 21,21 0 0 1 53.999756,271.99997 21,21 0 0 1 75.000024,250.9997 Z"
             style="opacity:1;fill:#f00000;fill-opacity:1;stroke:none;stroke-width:0.26458332"
             inkscape:connector-curvature="0" />
          <path
             sodipodi:nodetypes="cccccccccccccccccccc"
             inkscape:connector-curvature="0"
             id="rect4664"
             d="m 62.999772,253.0002 v 37.99975 h 16.999995 c 6.075011,-9e-5 10.999761,-4.92484 10.999846,-10.99985 -0.0049,-4.42498 -2.660883,-8.41621 -6.740676,-10.12961 1.758188,-1.85562 2.738993,-4.31411 2.740919,-6.87038 -5.3e-5,-5.52278 -4.477131,-9.99986 -9.999905,-9.99991 z m 4.000273,3.99975 h 9.999906 c 3.313625,2e-4 5.999718,2.68653 5.999633,6.00016 8.2e-5,3.31362 -2.68601,5.99994 -5.999633,6.00014 h -9.999906 z m 0,16.00006 h 12.999722 c 3.865862,2.4e-4 6.999624,3.13423 6.999573,7.00009 5.1e-5,3.86586 -3.133711,6.99985 -6.999573,7.00009 H 67.000045 Z"
             style="opacity:1;fill:#f00000;fill-opacity:1;stroke:none;stroke-width:0.27183351" />
        </g>
      </g>
    </g>
  </g>
</svg>
